<svg contentScriptType="text/ecmascript" zoomAndPan="magnify" xmlns:xlink="http://www.w3.org/1999/xlink" contentStyleType="text/css" version="1.1" width="215.75" xmlns:sodipodi="http://sodipodi.sourceforge.net/DTD/sodipodi-0.dtd" inkscape:textFontSize="fsize/elementScale" xmlns:inkscape="http://www.inkscape.org/namespaces/inkscape" preserveAspectRatio="xMidYMid meet" xmlns:myscada="http://www.myscada.org" viewBox="0 0 215.75 63" inkscape:componentSize="0.0;0.0;1.0;1.0" inkscape:voditka="{&quot;voditkoHorValues&quot;:[],&quot;voditkoVerValues&quot;:[]}" height="63" xmlns="http://www.w3.org/2000/svg" inkscape:componentData="{&quot;attr&quot;:&quot;Comp&quot;,&quot;name&quot;:&quot;Display&quot;,&quot;desc&quot;:&quot;Digital display&quot;,&quot;author&quot;:&quot;mySCADA Team&quot;,&quot;uniqueID&quot;:&quot;01ec84f244&quot;,&quot;MasterID&quot;:&quot;744628795&quot;,&quot;list&quot;:[{&quot;variableName&quot;:&quot;color1&quot;,&quot;name&quot;:&quot;Base color&quot;,&quot;desc&quot;:&quot;Set color&quot;,&quot;value&quot;:&quot;#0099CC&quot;,&quot;valueSub&quot;:&quot;&quot;,&quot;type&quot;:4,&quot;hide&quot;:false,&quot;translate&quot;:false,&quot;translations&quot;:{}},{&quot;variableName&quot;:&quot;color3&quot;,&quot;name&quot;:&quot;Stroke color&quot;,&quot;desc&quot;:&quot;Set color&quot;,&quot;value&quot;:&quot;#0099CC&quot;,&quot;valueSub&quot;:&quot;&quot;,&quot;type&quot;:4,&quot;hide&quot;:false,&quot;translate&quot;:false,&quot;translations&quot;:{}},{&quot;variableName&quot;:&quot;combo&quot;,&quot;name&quot;:&quot;Icon&quot;,&quot;desc&quot;:&quot;Choose icon&quot;,&quot;value&quot;:&quot;1;0=search,1=settings,2=yes,3=no,4=user,5=send,6=home,7=point,8=play,9=stop,10=arrow&quot;,&quot;valueSub&quot;:&quot;&quot;,&quot;type&quot;:7,&quot;hide&quot;:false,&quot;translate&quot;:false,&quot;translations&quot;:{}},{&quot;variableName&quot;:&quot;coloricon&quot;,&quot;name&quot;:&quot;Icon color&quot;,&quot;desc&quot;:&quot;Set color&quot;,&quot;value&quot;:&quot;#ffffff&quot;,&quot;valueSub&quot;:&quot;&quot;,&quot;type&quot;:4,&quot;hide&quot;:false,&quot;translate&quot;:false,&quot;translations&quot;:{}},{&quot;variableName&quot;:&quot;txt&quot;,&quot;name&quot;:&quot;Text&quot;,&quot;desc&quot;:&quot;Edit text&quot;,&quot;value&quot;:&quot;Set Angle&quot;,&quot;valueSub&quot;:&quot;&quot;,&quot;type&quot;:1,&quot;hide&quot;:false,&quot;translate&quot;:true,&quot;translations&quot;:{}},{&quot;variableName&quot;:&quot;size&quot;,&quot;name&quot;:&quot;Text size&quot;,&quot;desc&quot;:&quot;Set size&quot;,&quot;value&quot;:&quot;12&quot;,&quot;valueSub&quot;:&quot;&quot;,&quot;type&quot;:2,&quot;hide&quot;:false,&quot;translate&quot;:false,&quot;translations&quot;:{}},{&quot;variableName&quot;:&quot;color2&quot;,&quot;name&quot;:&quot;Text color&quot;,&quot;desc&quot;:&quot;Set color&quot;,&quot;value&quot;:&quot;#FFFFFF&quot;,&quot;valueSub&quot;:&quot;&quot;,&quot;type&quot;:4,&quot;hide&quot;:false,&quot;translate&quot;:false,&quot;translations&quot;:{}},{&quot;variableName&quot;:&quot;glow&quot;,&quot;name&quot;:&quot;Glow&quot;,&quot;desc&quot;:&quot;Set glow&quot;,&quot;value&quot;:&quot;0&quot;,&quot;valueSub&quot;:&quot;&quot;,&quot;type&quot;:5,&quot;hide&quot;:false,&quot;translate&quot;:false,&quot;translations&quot;:{}}]}">
<defs>
<linearGradient gradientTransform="rotate(270.0,0.5,0.5)" x1="0%" xmlns:xlink="http://www.w3.org/1999/xlink" gradientUnits="objectBoundingBox" x2="100%" y1="0%" y2="0%" xlink:type="simple" xlink:actuate="onLoad" id="prefix_id_lin0001" xlink:show="other" spreadMethod="pad">
<stop style="stop-color:#333333;stop-opacity:0.19;" offset="0%"/>
<stop style="stop-color:#ffffff;stop-opacity:0.31;" offset="100%"/>
</linearGradient>
</defs>
<rect x="0" width="215.75" y="0" height="63" id="pozadiNoSeL" style="fill:#ffffff;stoke:#ffffff;"/>
<rect x="0" width="215.75" id="prefix_id_pozadiNoSeL" height="63" y="0" style="fill:#ffffff;stoke:#ffffff;"/>
<g inkscape:groupmode="layer" id="layer0" style="display:inline;opacity:1.0;" inkscape:layerlabel="Background">
<rect x="1.0000000247707135" y="0.9999999961295316" width="212.74999997522917" inkscape:vypln="color1,100" style="fill:#0099CC;stroke:#0099CC; stroke-width:2;stroke-dasharray:none;stroke-linecap:butt;stroke-linejoin:miter;" rx="10.0" ry="10.0" id="prefix_id_rect0001" height="60.00000000000003" inkscape:vyplnStroke="color3"/>
<rect x="1.0000000247707135" y="0.9999999961294748" width="212.74999997522917" style="visibility:hidden;stroke-linejoin:miter;stroke-dasharray:none;stroke-width:1;fill:url(#prefix_id_lin0001);stroke:none;stroke-linecap:butt;" rx="10" ry="10" height="60.00000000000003" id="prefix_id_rect0002" inkscape:opac="glow;1;1"/>
</g>
<g inkscape:groupmode="layer" id="layer1" style="display:inline;opacity:1.0;" inkscape:componentalign="cr" inkscape:layerlabel="text">
<text x="251.8181818181818" y="239.0909090909091" transform="matrix(1 0 0 1 -118.4285260368797 -202.75491333007812)" inkscape:vypln="color2,100" inkscape:textik="txt" style="font-weight:bold;text-anchor:middle;font-size:12pt;font-family:&apos;Ubuntu&apos;;font-style:normal;fill:#FFFFFF;stroke:none;" id="prefix_id_text0001" inkscape:textFontSize="size">
Set Angle</text>
</g>
<g inkscape:groupmode="layer" id="layer2" inkscape:componentalign="cl" style="opacity:1.0;display:inline;" inkscape:layerlabel="icon">
<g style="visibility:hidden;" id="prefix_id_g0001">
<path inkscape:vypln="coloricon,100" d="M182.359,159.271l-6.385-6.283c1.67-1.816,2.697-4.219,2.697-6.862c0-5.654-4.658-10.239-10.403-10.239    c-5.746,0-10.405,4.585-10.405,10.239s4.659,10.238,10.405,10.238c2.482,0,4.76-0.858,6.548-2.286l6.41,6.308    c0.313,0.308,0.819,0.308,1.133,0C182.672,160.077,182.672,159.578,182.359,159.271z M168.269,154.789    c-4.863,0-8.804-3.88-8.804-8.664c0-4.785,3.941-8.663,8.804-8.663c4.861,0,8.804,3.878,8.804,8.663    C177.072,150.909,173.13,154.789,168.269,154.789z" id="prefix_id_path0001" style="visibility:hidden;fill:#ffffff;" inkscape:opac="combo;0;0" transform="matrix(1 0 0 1 -125.51006317138672 -117.1418685913086)"/>
<path inkscape:vypln="coloricon,100" id="prefix_id_path0002" d="M177.189,46.446l-1.795-1.045c0.102-0.549,0.168-1.109,0.168-1.688c0-0.578-0.066-1.139-0.168-1.688l1.795-1.045    c0.733-0.427,0.984-1.373,0.562-2.111l-1.533-2.678c-0.423-0.739-1.36-0.993-2.095-0.565l-1.813,1.055    c-0.848-0.727-1.811-1.321-2.882-1.704v-1.312c0-0.854-0.687-1.546-1.533-1.546h-3.066c-0.847,0-1.533,0.692-1.533,1.546v1.312    c-1.071,0.383-2.034,0.977-2.881,1.704l-1.813-1.055c-0.734-0.427-1.671-0.174-2.095,0.565l-1.533,2.678    c-0.423,0.739-0.172,1.685,0.561,2.111l1.796,1.045c-0.102,0.549-0.168,1.11-0.168,1.688c0,0.579,0.066,1.139,0.168,1.688    l-1.796,1.045c-0.733,0.426-0.984,1.372-0.561,2.111l1.533,2.678c0.423,0.739,1.361,0.993,2.095,0.565l1.813-1.055    c0.847,0.727,1.811,1.322,2.881,1.704v1.312c0,0.854,0.687,1.546,1.533,1.546h3.066c0.847,0,1.533-0.692,1.533-1.546V52.45    c1.071-0.382,2.034-0.977,2.882-1.704l1.813,1.055c0.734,0.427,1.672,0.173,2.095-0.565l1.533-2.678    C178.174,47.818,177.923,46.873,177.189,46.446z M176.041,48.454l-0.768,1.339c-0.211,0.37-0.681,0.496-1.048,0.283l-2.13-1.24    c-1.081,1.23-2.541,2.111-4.2,2.451v1.702c0,0.427-0.343,0.773-0.767,0.773h-1.532c-0.424,0-0.767-0.346-0.767-0.773v-1.702    c-1.659-0.34-3.12-1.221-4.201-2.451l-2.129,1.24c-0.367,0.213-0.836,0.087-1.048-0.283l-0.767-1.339    c-0.211-0.369-0.086-0.842,0.281-1.055l2.139-1.246c-0.254-0.769-0.407-1.585-0.407-2.44c0-0.855,0.152-1.671,0.407-2.44    l-2.139-1.245c-0.367-0.213-0.492-0.686-0.281-1.056l0.767-1.339c0.211-0.369,0.681-0.496,1.048-0.283l2.129,1.24    c1.081-1.229,2.542-2.111,4.201-2.451v-1.702c0-0.427,0.343-0.773,0.767-0.773h1.532c0.424,0,0.767,0.346,0.767,0.773v1.702    c1.659,0.339,3.12,1.221,4.2,2.451l2.13-1.24c0.367-0.213,0.837-0.086,1.048,0.283l0.768,1.339    c0.211,0.37,0.086,0.842-0.281,1.056l-2.139,1.245c0.254,0.769,0.406,1.585,0.406,2.44c0,0.855-0.152,1.672-0.406,2.44    l2.139,1.246C176.127,47.612,176.252,48.085,176.041,48.454z M166.362,39.848c-2.117,0-3.833,1.73-3.833,3.865    s1.715,3.865,3.833,3.865s3.833-1.73,3.833-3.865S168.479,39.848,166.362,39.848z M166.362,46.032c-1.271,0-2.3-1.038-2.3-2.319    c0-1.28,1.03-2.319,2.3-2.319s2.3,1.039,2.3,2.319C168.663,44.994,167.633,46.032,166.362,46.032z" style="visibility:visible;fill:#ffffff;" inkscape:opac="combo;1;1" transform="matrix(1 0 0 1 -121.60504913330078 -12.564382553100586)"/>
<path inkscape:vypln="coloricon,100" d="M111.013,107.271c-1.233-1.258-3.232-1.258-4.464,0l-11.161,11.383l-2.79-2.846c-1.233-1.258-3.231-1.258-4.464,0    c-1.232,1.257-1.232,3.296,0,4.553l5.022,5.123c1.233,1.257,3.232,1.257,4.464,0l13.393-13.66    C112.245,110.566,112.245,108.529,111.013,107.271z M109.897,110.687c0,0-13.186,13.447-13.393,13.659    c-0.617,0.629-1.615,0.629-2.232,0c0,0-5.054-5.155-5.069-5.172c-0.569-0.632-0.554-1.614,0.047-2.227    c0.616-0.629,1.615-0.629,2.232,0l3.906,3.984l12.277-12.521c0.616-0.629,1.616-0.629,2.232,0    C110.513,109.039,110.513,110.058,109.897,110.687z" id="prefix_id_path0003" style="visibility:hidden;fill:#ffffff;" inkscape:opac="combo;2;2" transform="matrix(1 0 0 1 -54.75236129760742 -85.1487808227539)"/>
<path inkscape:vypln="coloricon,100" id="prefix_id_path0004" d="M207.328,123.075l4.379-4.378c1.209-1.21,1.209-3.169,0-4.379c-1.209-1.208-3.17-1.208-4.379,0l-4.377,4.379l-4.379-4.379    c-1.209-1.208-3.168-1.208-4.379,0c-1.207,1.21-1.207,3.169,0,4.379l4.379,4.378l-4.379,4.378c-1.207,1.21-1.207,3.169,0,4.379    c1.211,1.209,3.17,1.209,4.379,0l4.379-4.379l4.377,4.379c1.209,1.209,3.17,1.209,4.379,0c1.209-1.21,1.209-3.169,0-4.379    L207.328,123.075z M210.613,130.737c-0.605,0.604-1.586,0.604-2.189,0l-5.473-5.473l-5.473,5.473    c-0.605,0.604-1.586,0.604-2.189,0c-0.605-0.604-0.605-1.585,0-2.189l5.473-5.473l-5.473-5.473c-0.605-0.604-0.605-1.585,0-2.189    c0.604-0.604,1.584-0.604,2.189,0l5.473,5.473l5.473-5.473c0.604-0.604,1.584-0.604,2.189,0c0.604,0.604,0.604,1.586,0,2.189    l-5.473,5.473l5.473,5.473C211.217,129.152,211.217,130.133,210.613,130.737z" style="visibility:hidden;fill:#ffffff;" inkscape:opac="combo;3;3" transform="matrix(1 0 0 1 -158.12989807128906 -91.84728240966797)"/>
<g inkscape:vypln="coloricon,100" id="prefix_id_g0002" style="fill:#ffffff;visibility:hidden;" inkscape:opac="combo;5;5">
<g id="prefix_id_g0003">
<path id="prefix_id_path0005" d="M67.014,73.92c-0.894,0.435-23.962,11.595-23.962,11.595s7.77,4.684,7.73,4.638c-0.013-0.015,4.638,8.503,4.638,8.503    S67.593,75.08,67.787,74.694C67.956,74.21,67.593,73.679,67.014,73.92z M46.143,85.515l17.779-8.502L51.554,88.607    C51.551,88.604,46.143,85.515,46.143,85.515z M55.419,95.564c0,0-2.418-4.657-3.092-6.184l12.426-11.766L55.419,95.564z" transform="matrix(1 0 0 1 -10.682886123657227 -54.93928909301758)"/>
</g>
</g>
<path inkscape:vypln="coloricon,100" d="M202.951,71.542L191.35,85.191l1.088,1.093l2.783-3.147v10.049c0,1.708,1.41,3.092,3.111,3.092h9.236    c1.701,0,3.111-1.384,3.111-3.092V83.137l2.783,3.147l1.09-1.093L202.951,71.542z M209.109,93.186    c0,0.853-0.689,1.546-1.541,1.546h-9.236c-0.85,0-1.564-0.693-1.564-1.546V81.301l6.184-7.494l6.184,7.47L209.109,93.186z" id="prefix_id_path0006" style="fill:#ffffff;visibility:hidden;" inkscape:opac="combo;6;6" transform="matrix(1 0 0 1 -158.1298828125 -52.681793212890625)"/>
<path inkscape:vypln="coloricon,100" d="M131.579,31.345c-5.123,0-9.275,4.153-9.275,9.276c0,3.878,7.733,15.468,9.275,15.459    c1.518,0.008,9.276-11.633,9.276-15.459C140.854,35.499,136.702,31.345,131.579,31.345z M131.579,53.762    c-1.285,0.007-7.729-9.909-7.729-13.141c0-4.269,3.46-7.73,7.729-7.73c4.27,0,7.73,3.461,7.73,7.73    C139.309,43.81,132.844,53.769,131.579,53.762z M131.579,36.756c-2.134,0-3.865,1.73-3.865,3.865s1.73,3.865,3.865,3.865    c2.135,0,3.865-1.73,3.865-3.865S133.713,36.756,131.579,36.756z M131.579,42.94c-1.28,0-2.319-1.038-2.319-2.319    c0-1.281,1.039-2.319,2.319-2.319c1.281,0,2.319,1.038,2.319,2.319C133.898,41.902,132.859,42.94,131.579,42.94z" id="prefix_id_path0007" style="fill:#ffffff;visibility:hidden;" inkscape:opac="combo;7;7" transform="matrix(1 0 0 1 -86.75838470458984 -12.488790512084961)"/>
<path inkscape:vypln="coloricon,100" d="M139.464,82.781l-14.541-9.474c-0.862-0.47-1.85-0.26-1.85,1.266v18.656c0,1.514,1.06,1.785,1.85,1.265l14.541-9.474    C140.302,84.426,140.279,83.327,139.464,82.781z M124.607,92.606V75.194l13.796,8.706L124.607,92.606z" id="prefix_id_path0008" style="fill:#ffffff;visibility:hidden;" inkscape:opac="combo;8;8" transform="matrix(1 0 0 1 -86.86640167236328 -52.697288513183594)"/>
<path inkscape:vypln="coloricon,100" d="M159.406,70.77h-3.092c-0.854,0-1.546,0.692-1.546,1.546v18.551c0,0.854,0.692,1.546,1.546,1.546h3.092    c0.854,0,1.546-0.692,1.546-1.546V72.316C160.952,71.462,160.26,70.77,159.406,70.77z M159.406,90.094    c0,0.427-0.346,0.773-0.773,0.773h-1.546c-0.427,0-0.773-0.346-0.773-0.773V73.089c0-0.427,0.346-0.773,0.773-0.773h1.546    c0.427,0,0.773,0.346,0.773,0.773V90.094z M168.682,70.77h-3.092c-0.854,0-1.546,0.692-1.546,1.546v18.551    c0,0.854,0.692,1.546,1.546,1.546h3.092c0.854,0,1.546-0.692,1.546-1.546V72.316C170.228,71.462,169.536,70.77,168.682,70.77z     M168.682,90.094c0,0.427-0.346,0.773-0.773,0.773h-1.546c-0.427,0-0.773-0.346-0.773-0.773V73.089    c0-0.427,0.346-0.773,0.773-0.773h1.546c0.427,0,0.773,0.346,0.773,0.773V90.094z" id="prefix_id_path0009" style="fill:#ffffff;visibility:hidden;" inkscape:opac="combo;9;9" transform="matrix(1 0 0 1 -117.67688751220703 -50.363285064697266)"/>
<path inkscape:vypln="coloricon,100" d="M135.35,111.326c-0.302-0.303-0.791-0.303-1.093,0c-0.302,0.302-0.302,0.791,0,1.093l3.186,3.186h-8.183    c-0.427,0-0.773,0.347-0.773,0.772c0,0.428,0.346,0.773,0.773,0.773h8.183l-3.186,3.186c-0.302,0.302-0.302,0.792,0,1.093    c0.302,0.302,0.791,0.302,1.093,0l4.372-4.372c0.186-0.186,0.243-0.439,0.201-0.68c0.042-0.239-0.015-0.493-0.201-0.679    L135.35,111.326z M134.671,104.01c-6.831,0-12.368,5.537-12.368,12.367c0,6.831,5.537,12.368,12.368,12.368    c6.831,0,12.368-5.537,12.368-12.368C147.039,109.547,141.501,104.01,134.671,104.01z M134.671,127.199    c-5.977,0-10.822-4.845-10.822-10.822c0-5.977,4.845-10.821,10.822-10.821s10.822,4.845,10.822,10.821    C145.493,122.354,140.648,127.199,134.671,127.199z" id="prefix_id_path0010" style="fill:#ffffff;visibility:hidden;" inkscape:opac="combo;10;10" transform="matrix(1 0 0 1 -89.84990692138672 -85.14927673339844)"/>
<path inkscape:vypln="coloricon,100" d="M104.984,37.529h6.184c0.427,0,0.773-0.346,0.773-0.773c0-0.426-0.346-0.773-0.773-0.773h-6.184    c-0.427,0-0.773,0.347-0.773,0.773C104.211,37.183,104.557,37.529,104.984,37.529z M111.167,40.621h-6.184    c-0.427,0-0.773,0.346-0.773,0.773s0.346,0.773,0.773,0.773h6.184c0.427,0,0.773-0.346,0.773-0.773S111.595,40.621,111.167,40.621    z M101.081,43.985c0.989-1.335,1.584-3.046,1.584-4.911c0-4.269-3.115-7.729-6.957-7.729s-6.957,3.461-6.957,7.729    c0,1.865,0.595,3.575,1.584,4.911c-1.816,0.628-3.13,2.335-3.13,4.365v3.092c0,2.561,2.077,4.638,4.638,4.638h7.729    c2.562,0,4.638-2.077,4.638-4.638v-3.092C104.211,46.32,102.897,44.613,101.081,43.985z M90.297,39.075    c0-3.415,2.422-6.184,5.411-6.184c2.989,0,5.411,2.769,5.411,6.184c0,3.415-2.422,6.184-5.411,6.184    C92.72,45.259,90.297,42.49,90.297,39.075z M102.665,51.056c0,1.921-1.699,3.479-3.795,3.479h-6.324    c-2.096,0-3.795-1.558-3.795-3.479v-2.319c0-1.644,1.247-3.012,2.918-3.376c1.14,0.905,2.531,1.443,4.039,1.443    s2.899-0.538,4.039-1.443c1.671,0.364,2.918,1.732,2.918,3.376V51.056z M111.167,45.259h-4.638c-0.427,0-0.773,0.347-0.773,0.773    c0,0.427,0.346,0.773,0.773,0.773h4.638c0.427,0,0.773-0.346,0.773-0.773C111.94,45.605,111.595,45.259,111.167,45.259z     M111.167,49.896h-4.638c-0.427,0-0.773,0.347-0.773,0.773c0,0.427,0.346,0.773,0.773,0.773h4.638    c0.427,0,0.773-0.346,0.773-0.773C111.94,50.243,111.595,49.896,111.167,49.896z" id="prefix_id_path0011" style="visibility:hidden;fill:#ffffff;" inkscape:opac="combo;4;4" transform="matrix(1 0 0 1 -54.75187301635742 -12.484289169311523)"/>
</g>
</g>
<g inkscape:groupmode="layer" myscada:layerActiveArea="YES" id="layer3" inkscape:layerlabel="ActiveArea"/>
</svg>
