<svg contentScriptType="text/ecmascript" zoomAndPan="magnify" xmlns:xlink="http://www.w3.org/1999/xlink" contentStyleType="text/css" id="Layer_1" enable-background="new 0 0 600 600" version="1.1" width="77.78399658203125" xml:space="preserve" xmlns:sodipodi="http://sodipodi.sourceforge.net/DTD/sodipodi-0.dtd" xmlns:inkscape="http://www.inkscape.org/namespaces/inkscape" preserveAspectRatio="xMidYMid meet" xmlns:myscada="http://www.myscada.org" viewBox="0.0 0.0 77.78399658203125 77.78399658203125" height="77.78399658203125" inkscape:voditka="{&quot;voditkoHorValues&quot;:[],&quot;voditkoVerValues&quot;:[]}" inkscape:componentSize="0.0;0.0;1.0;1.0" xmlns="http://www.w3.org/2000/svg" inkscape:componentData="{&quot;name&quot;:&quot;Component Name&quot;,&quot;desc&quot;:&quot;Component Description&quot;,&quot;author&quot;:&quot;mySCADA Team&quot;,&quot;uniqueID&quot;:&quot;47d9d0f046&quot;,&quot;MasterID&quot;:&quot;106149979&quot;,&quot;list&quot;:[{&quot;variableName&quot;:&quot;tag&quot;,&quot;name&quot;:&quot;Tag&quot;,&quot;desc&quot;:&quot;Enter Tag&quot;,&quot;value&quot;:&quot;O:3@X-Logic&quot;,&quot;valueSub&quot;:&quot;O:3&quot;,&quot;type&quot;:0}]}" x="0px" y="0px">
<defs>
<linearGradient gradientTransform="" x1="0%" xmlns:xlink="http://www.w3.org/1999/xlink" y1="0%" x2="100%" gradientUnits="objectBoundingBox" y2="0%" xlink:type="simple" xlink:actuate="onLoad" id="prefix_id_lin0001" xlink:show="other" spreadMethod="pad">
<stop offset="0%" style="stop-color:#333333;stop-opacity:1.0;"/>
<stop offset="100%" style="stop-color:#ffffff;stop-opacity:1.0;"/>
</linearGradient>
<linearGradient gradientTransform="rotate(45.0,0.5,0.5)" x1="0%" xmlns:xlink="http://www.w3.org/1999/xlink" y1="0%" x2="100%" gradientUnits="objectBoundingBox" y2="0%" xlink:type="simple" xlink:actuate="onLoad" id="prefix_id_lin0001_57711465" xlink:show="other" spreadMethod="pad">
<stop offset="0%" style="stop-color:#ffffff;stop-opacity:0.0;"/>
<stop offset="100%" style="stop-color:#FFFFFF;stop-opacity:0.21;"/>
</linearGradient>
<linearGradient gradientTransform="rotate(45.0,0.5,0.5)" x1="0%" xmlns:xlink="http://www.w3.org/1999/xlink" y1="0%" x2="100%" gradientUnits="objectBoundingBox" y2="0%" xlink:type="simple" xlink:actuate="onLoad" id="prefix_id_lin0001_00805439" xlink:show="other" spreadMethod="pad">
<stop offset="0%" style="stop-color:#ffffff;stop-opacity:0.0;"/>
<stop offset="100%" style="stop-color:#FFFFFF;stop-opacity:0.21;"/>
</linearGradient>
</defs>
<rect x="0" width="77.78399658203125" y="0" height="77.78399658203125" id="pozadiNoSeL" style="fill:#ffffff;stoke:#ffffff;"/>
<g inkscape:groupmode="layer" id="layer0" style="display:inline;" inkscape:layerlabel="off">
<g id="prefix_id_g0003">
<ellipse fill-rule="evenodd" style="fill:#000000;fill-opacity:0.28;" rx="38.392" cx="38.89199033555445" id="prefix_id_ellipse0001" ry="38.392" cy="38.89198842259366" clip-rule="evenodd"/>
<g id="prefix_id_Comp09839023" inkscape:componentSize="364.0;324.0;0.0;0.0">
<g id="prefix_id_09839023door_x5F_opened" display="none">
<ellipse display="inline" fill-rule="evenodd" style="fill:#1EB473;" rx="38.418" cx="38.89102029872977" cy="43.31900690098711" ry="38.418" clip-rule="evenodd"/>
<g display="inline">
<g>
<path clip-rule="evenodd" d="M316.984,289.283c0,0.795-0.646,1.439-1.443,1.439h-31.084     c-0.797,0-1.439-0.645-1.439-1.439l0,0c0-0.797,0.643-1.441,1.439-1.441h31.084C316.338,287.842,316.984,288.486,316.984,289.283     L316.984,289.283z" style="fill:#FFFFFF;" fill-rule="evenodd" transform="matrix(1 0 0 1 -261.1089340061892 -256.68096897404723)"/>
<path clip-rule="evenodd" d="M316.984,296.428c0,0.795-0.646,1.439-1.443,1.439h-31.084     c-0.797,0-1.439-0.645-1.439-1.439l0,0c0-0.797,0.643-1.441,1.439-1.441h31.084C316.338,294.986,316.984,295.631,316.984,296.428     L316.984,296.428z" style="fill:#FFFFFF;" fill-rule="evenodd" transform="matrix(1 0 0 1 -261.1089340061892 -256.68096897404723)"/>
<path clip-rule="evenodd" d="M316.984,303.57c0,0.795-0.646,1.441-1.443,1.441h-31.084     c-0.797,0-1.439-0.646-1.439-1.441l0,0c0-0.795,0.643-1.441,1.439-1.441h31.084C316.338,302.129,316.984,302.775,316.984,303.57     L316.984,303.57z" style="fill:#FFFFFF;" fill-rule="evenodd" transform="matrix(1 0 0 1 -261.1089340061892 -256.68096897404723)"/>
<path clip-rule="evenodd" d="M316.984,310.715c0,0.795-0.646,1.441-1.443,1.441h-31.084     c-0.797,0-1.439-0.646-1.439-1.441l0,0c0-0.795,0.643-1.441,1.439-1.441h31.084C316.338,309.273,316.984,309.92,316.984,310.715     L316.984,310.715z" style="fill:#FFFFFF;" fill-rule="evenodd" transform="matrix(1 0 0 1 -261.1089340061892 -256.68096897404723)"/>
</g>
</g>
</g>
<g id="prefix_id_09839023door_x5F_closed" display="none">
<ellipse display="inline" fill-rule="evenodd" style="fill-opacity:0.45;fill:#231F20;" rx="38.418" cx="38.89102029872977" cy="43.31900690098711" ry="38.418" clip-rule="evenodd"/>
<g display="inline">
<g>
<path clip-rule="evenodd" d="M316.984,289.283c0,0.797-0.646,1.441-1.443,1.441h-31.084     c-0.797,0-1.439-0.645-1.439-1.441l0,0c0-0.797,0.643-1.441,1.439-1.441h31.084C316.338,287.842,316.984,288.486,316.984,289.283     L316.984,289.283z" style="fill:#FFFFFF;" fill-rule="evenodd" transform="matrix(1 0 0 1 -261.1089340061892 -256.68096897404723)"/>
<path clip-rule="evenodd" d="M316.984,296.428c0,0.797-0.646,1.441-1.443,1.441h-31.084     c-0.797,0-1.439-0.645-1.439-1.441l0,0c0-0.797,0.643-1.441,1.439-1.441h31.084C316.338,294.986,316.984,295.631,316.984,296.428     L316.984,296.428z" style="fill:#FFFFFF;" fill-rule="evenodd" transform="matrix(1 0 0 1 -261.1089340061892 -256.68096897404723)"/>
<path clip-rule="evenodd" d="M316.984,303.572c0,0.795-0.646,1.441-1.443,1.441h-31.084     c-0.797,0-1.439-0.646-1.439-1.441l0,0c0-0.797,0.643-1.443,1.439-1.443h31.084C316.338,302.129,316.984,302.775,316.984,303.572     L316.984,303.572z" style="fill:#FFFFFF;" fill-rule="evenodd" transform="matrix(1 0 0 1 -261.1089340061892 -256.68096897404723)"/>
<path clip-rule="evenodd" d="M316.984,310.717c0,0.793-0.646,1.439-1.443,1.439h-31.084     c-0.797,0-1.439-0.646-1.439-1.439l0,0c0-0.797,0.643-1.443,1.439-1.443h31.084C316.338,309.273,316.984,309.92,316.984,310.717     L316.984,310.717z" style="fill:#FFFFFF;" fill-rule="evenodd" transform="matrix(1 0 0 1 -261.1089340061892 -256.68096897404723)"/>
</g>
</g>
</g>
<g id="prefix_id_09839023ON_x5F_50_x25_" display="none">
<path clip-rule="evenodd" d="M366.659,286.396v29.221   c0,2.969-2.41,5.379-5.381,5.379h-57.4c3.951-6.029,6.25-13.25,6.25-21c0-6.899-1.818-13.369-5.01-18.97h56.16   C364.249,281.026,366.659,283.437,366.659,286.396z" style="fill:#231F20;fill-opacity:0.45;" fill-rule="evenodd" display="inline" transform="matrix(1 0 0 1 -261.1089340061892 -256.68096897404723)"/>
<g id="prefix_id_09839023ON_6_" display="inline">
<g>
<ellipse fill-rule="evenodd" style="fill:#F7941E;" rx="38.392" cx="10.623020298729845" ry="38.392" cy="43.32100690098712" clip-rule="evenodd"/>
<g>
<path style="fill:#FFFFFF;" d="M276.603,310.859h-9.732c-0.729,0-1.311,0.59-1.311,1.313c0,0.725,0.582,1.314,1.311,1.314h9.732      c0.721,0,1.311-0.59,1.311-1.314C277.913,311.449,277.323,310.859,276.603,310.859z" transform="matrix(1 0 0 1 -261.1089340061892 -256.68096897404723)"/>
<path style="fill:#FFFFFF;" d="M266.224,315.449c0,1.572,1.148,2.867,2.645,3.125h5.727c1.504-0.256,2.654-1.553,2.654-3.125H266.224z" transform="matrix(1 0 0 1 -261.1089340061892 -256.68096897404723)"/>
<path style="fill:#FFFFFF;" d="M271.733,281.43c-7.262,0-13.148,5.887-13.148,13.146c0,3.064,1.055,5.879,2.813,8.109      c1.561,1.975,3.037,4.131,4.313,6.301h12.055c1.285-2.189,2.732-4.307,4.305-6.301c1.756-2.23,2.814-5.045,2.814-8.109      C284.884,287.316,278.995,281.43,271.733,281.43z" transform="matrix(1 0 0 1 -261.1089340061892 -256.68096897404723)"/>
</g>
</g>
<ellipse fill-rule="evenodd" style="fill:#FFFFFF;" rx="1.886" cx="10.627020298729718" ry="1.886" cy="18.073006900987043" clip-rule="evenodd"/>
<path clip-rule="evenodd" d="M254.081,300.002c0,1.041-0.846,1.881-1.883,1.881    c-1.043,0-1.887-0.84-1.887-1.881s0.844-1.881,1.887-1.881C253.235,298.121,254.081,298.961,254.081,300.002z" style="fill:#FFFFFF;" fill-rule="evenodd" transform="matrix(1 0 0 1 -261.1089340061892 -256.68096897404723)"/>
<path clip-rule="evenodd" d="M255.89,282.918c0,1.041-0.846,1.883-1.883,1.883    c-1.045,0-1.889-0.842-1.889-1.883s0.844-1.883,1.889-1.883C255.044,281.035,255.89,281.877,255.89,282.918z" style="fill:#FFFFFF;" fill-rule="evenodd" transform="matrix(1 0 0 1 -261.1089340061892 -256.68096897404723)"/>
<path clip-rule="evenodd" d="M291.267,282.908c0,1.041-0.844,1.883-1.887,1.883    c-1.037,0-1.883-0.842-1.883-1.883c0-1.039,0.846-1.883,1.883-1.883C290.423,281.025,291.267,281.869,291.267,282.908z" style="fill:#FFFFFF;" fill-rule="evenodd" transform="matrix(1 0 0 1 -261.1089340061892 -256.68096897404723)"/>
<path clip-rule="evenodd" d="M293.149,300.002c0,1.041-0.846,1.881-1.883,1.881    c-1.043,0-1.887-0.84-1.887-1.881s0.844-1.881,1.887-1.881C292.304,298.121,293.149,298.961,293.149,300.002z" style="fill:#FFFFFF;" fill-rule="evenodd" transform="matrix(1 0 0 1 -261.1089340061892 -256.68096897404723)"/>
</g>
<text style="fill:#FFFFFF;font-size:15;font-family:&apos;Ubuntu-Medium&apos;;" display="inline" transform="matrix(1 0 0 1 60.076509871984626 49.1442339678473)">
50%</text>
</g>
<g display="none">
<ellipse display="inline" fill-rule="evenodd" style="fill:#F7941E;" rx="38.392" cx="38.89102029872976" cy="43.32100690098712" ry="38.392" id="prefix_id_09839023podklad" clip-rule="evenodd"/>
<path d="M294.493,320h11.025c0,1-1.15,2-2.654,3h-5.727   C295.642,322,294.493,321,294.493,320z M282.276,285.161c-1.045,0-1.889,0.841-1.889,1.882s0.844,1.883,1.889,1.883   c1.037,0,1.883-0.842,1.883-1.883S283.313,285.161,282.276,285.161z M280.468,302.246c-1.043,0-1.887,0.84-1.887,1.881   s0.844,1.881,1.887,1.881c1.037,0,1.883-0.84,1.883-1.881S281.505,302.246,280.468,302.246z M300.003,280.761   c1.043,0,1.889-0.843,1.889-1.883c0-1.041-0.846-1.883-1.889-1.883c-1.039,0-1.883,0.842-1.883,1.883   C298.12,279.918,298.964,280.761,300.003,280.761z M319.536,287.033c0-1.039-0.844-1.882-1.887-1.882   c-1.037,0-1.883,0.843-1.883,1.882c0,1.041,0.846,1.883,1.883,1.883C318.692,288.916,319.536,288.074,319.536,287.033z    M319.536,302.246c-1.043,0-1.887,0.84-1.887,1.881s0.844,1.881,1.887,1.881c1.037,0,1.883-0.84,1.883-1.881   S320.573,302.246,319.536,302.246z M300.003,285.555c-7.262,0-13.148,5.886-13.148,13.146c0,3.064,1.055,5.823,2.813,8.054   c1.561,1.975,3.037,4.245,4.313,6.245h12.055c1.285-2,2.732-4.251,4.305-6.245c1.756-2.23,2.814-5.017,2.814-8.081   C313.153,291.413,307.265,285.555,300.003,285.555z M304.872,315h-9.732c-0.729,0-1.311,0.776-1.311,1.499   c0,0.725,0.582,1.501,1.311,1.501h9.732c0.721,0,1.311-0.776,1.311-1.501C306.183,315.776,305.593,315,304.872,315z" id="prefix_id_09839023žárovka" style="fill:#FFFFFF;" display="inline" transform="matrix(1 0 0 1 -261.1089340061892 -256.68096897404723)"/>
</g>
<ellipse display="none" fill-rule="evenodd" style="fill-opacity:0.45;fill:#231F20;" rx="38.392" cx="38.89102029872976" cy="43.32000690098703" ry="38.392" clip-rule="evenodd"/>
<path style="fill:#FFFFFF;" d="M304.868,310.857h-9.732c-0.729,0-1.311,0.59-1.311,1.313c0,0.725,0.582,1.314,1.311,1.314h9.732  c0.721,0,1.311-0.59,1.311-1.314C306.179,311.447,305.589,310.857,304.868,310.857z M294.489,315.447  c0,1.571,1.148,2.867,2.645,3.124h5.727c1.504-0.255,2.654-1.553,2.654-3.124H294.489z M299.999,281.429  c-7.262,0-13.148,5.885-13.148,13.146c0,3.065,1.055,5.88,2.813,8.109c1.561,1.975,3.037,4.13,4.313,6.301h12.055  c1.285-2.189,2.732-4.308,4.305-6.301c1.756-2.229,2.814-5.044,2.814-8.109C313.149,287.313,307.261,281.429,299.999,281.429z" transform="matrix(1 0 0 1 -261.1089340061892 -256.68096897404723)"/>
<g id="prefix_id_09839023heating" display="none">
<path clip-rule="evenodd" d="M381.541,274.205v51.58   c0,2.97-2.4,5.38-5.369,5.38h-96.811c9.51-6.99,15.68-18.26,15.68-30.97c0-12.95-6.41-24.4-16.219-31.36h97.35   C379.141,268.835,381.541,271.235,381.541,274.205z" style="fill:#231F20;fill-opacity:0.45;" fill-rule="evenodd" display="inline" transform="matrix(1 0 0 1 -261.1089340061892 -256.68096897404723)"/>
<ellipse display="inline" fill-rule="evenodd" style="fill:#EC3A48;" rx="38.418" cx="-4.231979701270156" cy="43.31900690098711" ry="38.418" clip-rule="evenodd"/>
<text style="fill:#FFFFFF;font-size:15;font-family:&apos;Ubuntu-Medium&apos;;" display="inline" transform="matrix(1 0 0 1 74.07071534683814 48.13355281550355)">
25 °C</text>
<g display="inline">
<g>
<path clip-rule="evenodd" d="M312.475,305.694c0,0.52-0.422,0.941-0.941,0.941l0,0     c-0.52,0-0.941-0.422-0.941-0.941v-11.391c0-0.52,0.422-0.941,0.941-0.941l0,0c0.52,0,0.941,0.422,0.941,0.941V305.694z" style="fill:#FFFFFF;" fill-rule="evenodd" transform="matrix(1 0 0 1 -261.1089340061892 -256.68096897404723)"/>
<path clip-rule="evenodd" d="M316.355,305.694c0,0.52-0.422,0.941-0.941,0.941l0,0     c-0.52,0-0.941-0.422-0.941-0.941v-11.391c0-0.52,0.422-0.941,0.941-0.941l0,0c0.52,0,0.941,0.422,0.941,0.941V305.694z" style="fill:#FFFFFF;" fill-rule="evenodd" transform="matrix(1 0 0 1 -261.1089340061892 -256.68096897404723)"/>
<path clip-rule="evenodd" d="M320.236,305.694c0,0.52-0.422,0.941-0.941,0.941l0,0     c-0.52,0-0.941-0.422-0.941-0.941v-11.391c0-0.52,0.422-0.941,0.941-0.941l0,0c0.52,0,0.941,0.422,0.941,0.941V305.694z" style="fill:#FFFFFF;" fill-rule="evenodd" transform="matrix(1 0 0 1 -261.1089340061892 -256.68096897404723)"/>
</g>
</g>
<g display="inline">
<path style="fill:#FFFFFF;" d="M258.143,309.186c0.01-0.07,0.016-0.143,0.016-0.217V300c0-0.709-0.568-1.285-1.281-1.285    c-0.707,0-1.281,0.561-1.281,1.285v8.969c0,0.074,0.006,0.146,0.018,0.217c-1.504,0.523-2.582,1.951-2.582,3.633    c0,2.122,1.721,3.845,3.846,3.845c2.123,0,3.846-1.723,3.846-3.845C260.723,311.137,259.645,309.709,258.143,309.186z" transform="matrix(1 0 0 1 -261.1089340061892 -256.68096897404723)"/>
<path style="fill:#FFFFFF;" d="M263.439,293.008c0.354-0.001,0.641-0.287,0.641-0.641s-0.287-0.642-0.641-0.642h-2.717V287.3h2.717    c0.354-0.001,0.641-0.287,0.641-0.641s-0.287-0.642-0.641-0.642h-2.717v-1.411c0-2.115-1.73-3.833-3.846-3.833    c-2.129,0-3.846,1.718-3.846,3.833v23.085c-1.551,1.166-2.563,3.025-2.563,5.127c0,3.537,2.871,6.408,6.408,6.408    s6.408-2.871,6.408-6.408c0-2.102-1.012-3.961-2.563-5.127v-3.269h2.717c0.354-0.001,0.641-0.287,0.641-0.641    s-0.287-0.642-0.641-0.642h-2.717v-4.426h2.717c0.354,0,0.641-0.287,0.641-0.641s-0.287-0.641-0.641-0.641h-2.717v-4.426H263.439z     M262.004,312.818c0,2.832-2.295,5.126-5.127,5.126s-5.127-2.294-5.127-5.126c0-1.898,1.025-3.551,2.563-4.436v-23.764    c0-1.423,1.154-2.564,2.564-2.564c1.424,0,2.564,1.154,2.564,2.564v23.764C260.979,309.268,262.004,310.92,262.004,312.818z" transform="matrix(1 0 0 1 -261.1089340061892 -256.68096897404723)"/>
</g>
</g>
<g id="prefix_id_09839023cooling_1_" display="none">
<path clip-rule="evenodd" d="M381.666,274.012v51.58   c0,2.969-2.4,5.379-5.369,5.379h-96.811c9.51-6.99,15.68-18.26,15.68-30.969c0-12.951-6.41-24.4-16.219-31.361h97.35   C379.266,268.641,381.666,271.041,381.666,274.012z" style="fill:#231F20;fill-opacity:0.45;" fill-rule="evenodd" display="inline" transform="matrix(1 0 0 1 -261.1089340061892 -256.68096897404723)"/>
<ellipse display="inline" fill-rule="evenodd" style="fill:#00ADEE;" rx="38.418" cx="-4.356979701270156" cy="43.31900690098711" ry="38.418" clip-rule="evenodd"/>
<text style="fill:#FFFFFF;font-size:15;font-family:&apos;Ubuntu-Medium&apos;;" display="inline" transform="matrix(1 0 0 1 73.94571534683814 47.9401324053473)">
22 °C</text>
<path clip-rule="evenodd" d="M320.984,298.865h-3.424l2.42-2.42   c0.367-0.367,0.367-0.963,0-1.33c-0.367-0.369-0.963-0.369-1.33-0.002l-2.422,2.422v-3.424c0-0.52-0.42-0.941-0.939-0.941   s-0.941,0.422-0.941,0.941v3.424l-2.42-2.422c-0.367-0.367-0.965-0.367-1.332,0c-0.367,0.369-0.367,0.965,0,1.332l2.422,2.42   h-3.424c-0.52,0-0.941,0.422-0.941,0.941s0.422,0.941,0.941,0.941h3.422l-2.42,2.42c-0.367,0.367-0.367,0.963,0,1.33   s0.965,0.367,1.33,0l2.422-2.42v3.424c0,0.52,0.422,0.939,0.941,0.939s0.939-0.42,0.939-0.939v-3.424l2.422,2.42   c0.367,0.367,0.963,0.367,1.33,0s0.367-0.963,0-1.33l-2.42-2.42h3.424c0.52,0,0.939-0.422,0.941-0.941   C321.924,299.287,321.504,298.865,320.984,298.865z" style="fill:#FFFFFF;" fill-rule="evenodd" display="inline" transform="matrix(1 0 0 1 -261.1089340061892 -256.68096897404723)"/>
<g display="inline">
<path style="fill:#FFFFFF;" d="M257.621,309.185c0.01-0.069,0.016-0.143,0.016-0.216V300c0-0.71-0.568-1.286-1.281-1.286    c-0.707,0-1.281,0.562-1.281,1.286v8.969c0,0.073,0.006,0.146,0.018,0.216c-1.504,0.523-2.582,1.952-2.582,3.633    c0,2.122,1.721,3.845,3.846,3.845c2.123,0,3.846-1.723,3.846-3.845C260.201,311.137,259.123,309.708,257.621,309.185z" transform="matrix(1 0 0 1 -261.1089340061892 -256.68096897404723)"/>
<path style="fill:#FFFFFF;" d="M262.918,293.007c0.354-0.001,0.641-0.287,0.641-0.641s-0.287-0.642-0.641-0.642h-2.717v-4.426h2.717    c0.354,0,0.641-0.287,0.641-0.641s-0.287-0.641-0.641-0.641h-2.717v-1.412c0-2.115-1.73-3.832-3.846-3.832    c-2.129,0-3.846,1.717-3.846,3.832v23.085c-1.551,1.167-2.563,3.025-2.563,5.127c0,3.537,2.871,6.409,6.408,6.409    s6.408-2.872,6.408-6.409c0-2.102-1.012-3.96-2.563-5.127v-3.269h2.717c0.354,0,0.641-0.287,0.641-0.641s-0.287-0.641-0.641-0.641    h-2.717v-4.426h2.717c0.354,0,0.641-0.287,0.641-0.641s-0.287-0.641-0.641-0.641h-2.717v-4.427H262.918z M261.482,312.817    c0,2.833-2.295,5.126-5.127,5.126s-5.127-2.293-5.127-5.126c0-1.897,1.025-3.55,2.563-4.435v-23.765    c0-1.423,1.154-2.563,2.564-2.563c1.424,0,2.564,1.153,2.564,2.563v23.765C260.457,309.268,261.482,310.92,261.482,312.817z" transform="matrix(1 0 0 1 -261.1089340061892 -256.68096897404723)"/>
</g>
</g>
<g id="prefix_id_09839023cooling_2_" display="none">
<path clip-rule="evenodd" d="M381.666,274.012v51.58   c0,2.969-2.4,5.379-5.369,5.379h-96.811c9.51-6.99,15.68-18.26,15.68-30.969c0-12.951-6.41-24.4-16.219-31.361h97.35   C379.266,268.641,381.666,271.041,381.666,274.012z" style="fill:#231F20;fill-opacity:0.45;" fill-rule="evenodd" display="inline" transform="matrix(1 0 0 1 -261.1089340061892 -256.68096897404723)"/>
<ellipse display="inline" fill-rule="evenodd" style="fill:#00ADEE;" rx="38.418" cx="-4.356979701270156" cy="43.31900690098711" ry="38.418" clip-rule="evenodd"/>
<text style="fill:#FFFFFF;font-size:15;font-family:&apos;Ubuntu-Medium&apos;;" display="inline" transform="matrix(1 0 0 1 73.94571534683814 47.9401324053473)">
22 °C</text>
<g display="inline">
<path style="fill:#FFFFFF;" d="M257.621,309.185c0.01-0.069,0.016-0.143,0.016-0.216V300c0-0.71-0.568-1.286-1.281-1.286    c-0.707,0-1.281,0.562-1.281,1.286v8.969c0,0.073,0.006,0.146,0.018,0.216c-1.504,0.523-2.582,1.952-2.582,3.633    c0,2.122,1.721,3.845,3.846,3.845c2.123,0,3.846-1.723,3.846-3.845C260.201,311.137,259.123,309.708,257.621,309.185z" transform="matrix(1 0 0 1 -261.1089340061892 -256.68096897404723)"/>
<path style="fill:#FFFFFF;" d="M262.918,293.007c0.354-0.001,0.641-0.287,0.641-0.641s-0.287-0.642-0.641-0.642h-2.717v-4.426h2.717    c0.354,0,0.641-0.287,0.641-0.641s-0.287-0.641-0.641-0.641h-2.717v-1.412c0-2.115-1.73-3.832-3.846-3.832    c-2.129,0-3.846,1.717-3.846,3.832v23.085c-1.551,1.167-2.563,3.025-2.563,5.127c0,3.537,2.871,6.409,6.408,6.409    s6.408-2.872,6.408-6.409c0-2.102-1.012-3.96-2.563-5.127v-3.269h2.717c0.354,0,0.641-0.287,0.641-0.641s-0.287-0.641-0.641-0.641    h-2.717v-4.426h2.717c0.354,0,0.641-0.287,0.641-0.641s-0.287-0.641-0.641-0.641h-2.717v-4.427H262.918z M261.482,312.817    c0,2.833-2.295,5.126-5.127,5.126s-5.127-2.293-5.127-5.126c0-1.897,1.025-3.55,2.563-4.435v-23.765    c0-1.423,1.154-2.563,2.564-2.563c1.424,0,2.564,1.153,2.564,2.563v23.765C260.457,309.268,261.482,310.92,261.482,312.817z" transform="matrix(1 0 0 1 -261.1089340061892 -256.68096897404723)"/>
</g>
<path clip-rule="evenodd" d="M313.98,305.91   c1.018-1.004,1.543-2.234,1.701-3.643c-0.027,0.031-0.057,0.062-0.084,0.094c-0.92,1.057-2.031,1.838-3.344,2.331   c-0.086,0.032-0.143,0.021-0.209-0.043c-0.982-0.921-1.617-2.038-1.906-3.353c-0.047-0.22-0.07-0.445-0.104-0.667   c-0.004-0.02,0-0.04,0-0.079c0.674,0.17,1.348,0.252,2.035,0.182c0.684-0.07,1.34-0.248,2.002-0.526   c-0.193-0.042-0.361-0.073-0.527-0.112c-1.232-0.298-2.34-0.844-3.32-1.65c-0.068-0.057-0.094-0.102-0.072-0.197   c0.365-1.549,1.186-2.797,2.459-3.748c0.023-0.017,0.049-0.03,0.088-0.054c0.18,0.673,0.459,1.292,0.857,1.854   c0.398,0.563,0.883,1.044,1.453,1.47c-0.072-0.23-0.145-0.439-0.203-0.651c-0.266-0.964-0.355-1.943-0.266-2.938   c0.018-0.211,0.055-0.422,0.08-0.633c0.01-0.078,0.045-0.118,0.127-0.144c0.773-0.236,1.563-0.331,2.373-0.271   c0.701,0.053,1.373,0.218,2.02,0.487c0.047,0.019,0.092,0.042,0.137,0.063c0.01,0.006,0.018,0.014,0.035,0.027   c-0.65,0.648-1.125,1.405-1.412,2.275c-0.146,0.44-0.244,0.891-0.309,1.386c0.141-0.153,0.254-0.284,0.373-0.407   c0.883-0.924,1.918-1.615,3.119-2.051c0.037-0.014,0.104-0.003,0.131,0.022c0.934,0.853,1.564,1.892,1.879,3.116   c0.084,0.324,0.131,0.659,0.201,1.025c-1.412-0.396-2.742-0.225-4.072,0.332c0.18,0.036,0.332,0.063,0.48,0.098   c1.262,0.303,2.402,0.852,3.398,1.688c0.053,0.045,0.063,0.08,0.047,0.146c-0.357,1.57-1.186,2.832-2.482,3.787   c-0.018,0.013-0.035,0.021-0.066,0.039c-0.365-1.386-1.17-2.458-2.316-3.327c0.047,0.145,0.088,0.263,0.127,0.382   c0.326,1.01,0.426,2.047,0.365,3.102c-0.014,0.236-0.064,0.472-0.094,0.707c-0.012,0.102-0.057,0.153-0.162,0.188   c-0.658,0.213-1.334,0.299-2.023,0.283c-0.842-0.02-1.65-0.2-2.424-0.544C314.047,305.944,314.021,305.931,313.98,305.91z    M318.633,299.803c0-1.096-0.885-1.98-1.98-1.979c-1.107,0.001-1.984,0.88-1.986,1.987c0,1.098,0.883,1.979,1.982,1.979   C317.752,301.791,318.633,300.909,318.633,299.803z" style="fill:#FFFFFF;" fill-rule="evenodd" display="inline" transform="matrix(1 0 0 1 -261.1089340061892 -256.68096897404723)"/>
</g>
<g id="prefix_id_09839023power_1_" display="none">
<path clip-rule="evenodd" d="M381.666,274.012v51.58   c0,2.971-2.4,5.381-5.369,5.381h-96.811c9.51-6.99,15.68-18.26,15.68-30.971c0-12.949-6.41-24.4-16.219-31.36h97.35   C379.266,268.642,381.666,271.042,381.666,274.012z" style="fill:#231F20;fill-opacity:0.45;" fill-rule="evenodd" display="inline" transform="matrix(1 0 0 1 -261.1089340061892 -256.68096897404723)"/>
<ellipse display="inline" fill-rule="evenodd" style="fill:#5B57A4;" rx="38.418" cx="-4.356979701270156" cy="43.31900690098711" ry="38.418" clip-rule="evenodd"/>
<text style="fill:#FFFFFF;font-size:15;font-family:&apos;Ubuntu-Medium&apos;;" display="inline" transform="matrix(1 0 0 1 48.841219344640876 47.9401324053473)">
1 kwh</text>
<g display="inline">
<g>
<path style="fill:#FFFFFF;" d="M247.522,314.545c-0.205,0-0.41-0.068-0.58-0.206c-0.34-0.278-0.436-0.758-0.227-1.145l5.444-10.118     h-4.638c-0.379,0-0.72-0.232-0.855-0.586c-0.137-0.354-0.041-0.754,0.24-1.01l17.449-15.789c0.32-0.289,0.799-0.316,1.149-0.063     s0.478,0.715,0.304,1.11l-4.599,10.516h4.771c0.386,0,0.73,0.24,0.862,0.602c0.132,0.363,0.021,0.77-0.273,1.017l-18.46,15.459     C247.94,314.473,247.73,314.545,247.522,314.545z M249.899,301.244h3.794c0.323,0,0.621,0.17,0.786,0.446     c0.166,0.276,0.174,0.62,0.021,0.905l-3.914,7.271l12.875-10.781h-3.651c-0.31,0-0.598-0.156-0.768-0.414     c-0.169-0.26-0.196-0.586-0.072-0.87l3.45-7.888L249.899,301.244z" transform="matrix(1 0 0 1 -261.1089340061892 -256.68096897404723)"/>
</g>
</g>
</g>
<g id="prefix_id_09839023cooling_6_" display="none">
<path clip-rule="evenodd" d="M381.666,274.012v51.58   c0,2.971-2.4,5.381-5.369,5.381h-96.811c9.51-6.99,15.68-18.26,15.68-30.971c0-12.949-6.41-24.4-16.219-31.36h97.35   C379.266,268.642,381.666,271.042,381.666,274.012z" style="fill:#231F20;fill-opacity:0.45;" fill-rule="evenodd" display="inline" transform="matrix(1 0 0 1 -261.1089340061892 -256.68096897404723)"/>
<ellipse display="inline" fill-rule="evenodd" style="fill:#008ED3;" rx="38.418" cx="-4.356979701270156" cy="43.31900690098711" ry="38.418" clip-rule="evenodd"/>
<text style="fill:#FFFFFF;font-size:15;font-family:&apos;Ubuntu-Medium&apos;;" display="inline" transform="matrix(1 0 0 1 48.841219344640876 47.9401324053473)">
1 kwh</text>
<path clip-rule="evenodd" d="M256.604,289.563   c2.834,3.676,5.382,7.137,6.837,11.248c1.007,2.844,0.435,5.449-1.7,7.547c-2.136,2.098-4.74,2.574-7.582,1.59   c-3.424-1.186-5.391-5.131-4.258-8.727c0.42-1.33,0.971-2.656,1.687-3.85C253.145,294.781,254.847,292.279,256.604,289.563z    M254.459,307.988c-0.13-0.498-0.213-0.893-0.336-1.273c-0.606-1.877-0.669-3.777-0.181-5.678c0.496-1.936,1.063-3.852,1.594-5.777   c0.141-0.514,0.268-1.029,0.401-1.545c-0.069-0.023-0.138-0.047-0.206-0.07c-1.262,2.352-2.643,4.648-3.755,7.068   C250.671,303.555,251.798,306.689,254.459,307.988z" style="fill:#FFFFFF;" fill-rule="evenodd" display="inline" transform="matrix(1 0 0 1 -261.1089340061892 -256.68096897404723)"/>
</g>
</g>
</g>
</g>
<g inkscape:groupmode="layer" id="layer1" style="display:inline;" inkscape:layerlabel="on">
<path d="M294.493,320h11.025c0,1-1.15,2-2.654,3h-5.727   C295.642,322,294.493,321,294.493,320z M282.276,285.161c-1.045,0-1.889,0.841-1.889,1.882s0.844,1.883,1.889,1.883   c1.037,0,1.883-0.842,1.883-1.883S283.313,285.161,282.276,285.161z M280.468,302.246c-1.043,0-1.887,0.84-1.887,1.881   s0.844,1.881,1.887,1.881c1.037,0,1.883-0.84,1.883-1.881S281.505,302.246,280.468,302.246z M300.003,280.761   c1.043,0,1.889-0.843,1.889-1.883c0-1.041-0.846-1.883-1.889-1.883c-1.039,0-1.883,0.842-1.883,1.883   C298.12,279.918,298.964,280.761,300.003,280.761z M319.536,287.033c0-1.039-0.844-1.882-1.887-1.882   c-1.037,0-1.883,0.843-1.883,1.882c0,1.041,0.846,1.883,1.883,1.883C318.692,288.916,319.536,288.074,319.536,287.033z    M319.536,302.246c-1.043,0-1.887,0.84-1.887,1.881s0.844,1.881,1.887,1.881c1.037,0,1.883-0.84,1.883-1.881   S320.573,302.246,319.536,302.246z M300.003,285.555c-7.262,0-13.148,5.886-13.148,13.146c0,3.064,1.055,5.823,2.813,8.054   c1.561,1.975,3.037,4.245,4.313,6.245h12.055c1.285-2,2.732-4.251,4.305-6.245c1.756-2.23,2.814-5.017,2.814-8.081   C313.153,291.413,307.265,285.555,300.003,285.555z M304.872,315h-9.732c-0.729,0-1.311,0.776-1.311,1.499   c0,0.725,0.582,1.501,1.311,1.501h9.732c0.721,0,1.311-0.776,1.311-1.501C306.183,315.776,305.593,315,304.872,315z" id="prefix_id_žárovka" style="fill:#FFFFFF;" display="none" transform="matrix(1 0 0 1 -415.01426696777344 -298.0709533691406)"/>
<g inkscape:label="{&quot;attr&quot;:&quot;opac&quot;,&quot;tag&quot;:&quot;O:3@X-Logic&quot;,&quot;alias&quot;:&quot;O:3&quot;,&quot;plcName&quot;:&quot;&quot;,&quot;min&quot;:&quot;1&quot;,&quot;max&quot;:&quot;1&quot;},{&quot;attr&quot;:&quot;Component&quot;,&quot;parentID&quot;:&quot;Layer_1&quot;}" id="prefix_id_g0001" inkscape:lblTemplate="{&quot;attr&quot;:&quot;opac&quot;,&quot;tag&quot;:&quot;tag&quot;,&quot;alias&quot;:&quot;&quot;,&quot;plcName&quot;:&quot;&quot;,&quot;min&quot;:&quot;1&quot;,&quot;max&quot;:&quot;1&quot;}">
<ellipse fill-rule="evenodd" inkscape:vypln="ONColor,100" style="fill:#f7931d;" rx="38.392" cx="38.891983954094414" cy="38.891984760345785" ry="38.392" id="prefix_id_podklad" clip-rule="evenodd"/>
<ellipse transform="matrix(-0.379121214151382 -0.02690315805375573 0.02690315805375573 -0.379121214151382 329.56247769869276 332.94080756654546)" style="fill:url(#prefix_id_lin0001_00805439);stroke:none; stroke-width:1;stroke-dasharray:none;stroke-linecap:butt;stroke-linejoin:miter;" rx="101.5" cx="817.6166723193909" id="prefix_id_ellipse0003" ry="101.5" cy="717.5866844992169"/>
<g style="stroke:none;fill:#000000;" id="prefix_id_Comp95128984" inkscape:componentSize="311.0;115.0;0.0;0.0">
<g id="prefix_id_95128984žaluzie" display="none">
<ellipse display="inline" fill-rule="evenodd" style="fill:#1EB473;" rx="38.418" cx="38.891972577186635" cy="38.89451773112042" ry="38.418" clip-rule="evenodd"/>
<g display="inline">
<g>
<path clip-rule="evenodd" d="M316.984,289.283c0,0.795-0.646,1.439-1.443,1.439h-31.084     c-0.797,0-1.439-0.645-1.439-1.439l0,0c0-0.797,0.643-1.441,1.439-1.441h31.084C316.338,287.842,316.984,288.486,316.984,289.283     L316.984,289.283z" style="fill:#FFFFFF;" fill-rule="evenodd" transform="matrix(1 0 0 1 -261.10801847884545 -261.1054990033441)"/>
<path clip-rule="evenodd" d="M316.984,296.428c0,0.795-0.646,1.439-1.443,1.439h-31.084     c-0.797,0-1.439-0.645-1.439-1.439l0,0c0-0.797,0.643-1.441,1.439-1.441h31.084C316.338,294.986,316.984,295.631,316.984,296.428     L316.984,296.428z" style="fill:#FFFFFF;" fill-rule="evenodd" transform="matrix(1 0 0 1 -261.10801847884545 -261.1054990033441)"/>
<path clip-rule="evenodd" d="M316.984,303.57c0,0.795-0.646,1.441-1.443,1.441h-31.084     c-0.797,0-1.439-0.646-1.439-1.441l0,0c0-0.795,0.643-1.441,1.439-1.441h31.084C316.338,302.129,316.984,302.775,316.984,303.57     L316.984,303.57z" style="fill:#FFFFFF;" fill-rule="evenodd" transform="matrix(1 0 0 1 -261.10801847884545 -261.1054990033441)"/>
<path clip-rule="evenodd" d="M316.984,310.715c0,0.795-0.646,1.441-1.443,1.441h-31.084     c-0.797,0-1.439-0.646-1.439-1.441l0,0c0-0.795,0.643-1.441,1.439-1.441h31.084C316.338,309.273,316.984,309.92,316.984,310.715     L316.984,310.715z" style="fill:#FFFFFF;" fill-rule="evenodd" transform="matrix(1 0 0 1 -261.10801847884545 -261.1054990033441)"/>
</g>
</g>
</g>
<g id="prefix_id_95128984žaluzie_1_" display="none">
<ellipse display="inline" fill-rule="evenodd" style="fill-opacity:0.45;fill:#231F20;" rx="38.418" cx="38.891972577186635" cy="38.89451773112042" ry="38.418" clip-rule="evenodd"/>
<g display="inline">
<g>
<path clip-rule="evenodd" d="M316.984,289.283c0,0.797-0.646,1.441-1.443,1.441h-31.084     c-0.797,0-1.439-0.645-1.439-1.441l0,0c0-0.797,0.643-1.441,1.439-1.441h31.084C316.338,287.842,316.984,288.486,316.984,289.283     L316.984,289.283z" style="fill:#FFFFFF;" fill-rule="evenodd" transform="matrix(1 0 0 1 -261.10801847884545 -261.1054990033441)"/>
<path clip-rule="evenodd" d="M316.984,296.428c0,0.797-0.646,1.441-1.443,1.441h-31.084     c-0.797,0-1.439-0.645-1.439-1.441l0,0c0-0.797,0.643-1.441,1.439-1.441h31.084C316.338,294.986,316.984,295.631,316.984,296.428     L316.984,296.428z" style="fill:#FFFFFF;" fill-rule="evenodd" transform="matrix(1 0 0 1 -261.10801847884545 -261.1054990033441)"/>
<path clip-rule="evenodd" d="M316.984,303.572c0,0.795-0.646,1.441-1.443,1.441h-31.084     c-0.797,0-1.439-0.646-1.439-1.441l0,0c0-0.797,0.643-1.443,1.439-1.443h31.084C316.338,302.129,316.984,302.775,316.984,303.572     L316.984,303.572z" style="fill:#FFFFFF;" fill-rule="evenodd" transform="matrix(1 0 0 1 -261.10801847884545 -261.1054990033441)"/>
<path clip-rule="evenodd" d="M316.984,310.717c0,0.793-0.646,1.439-1.443,1.439h-31.084     c-0.797,0-1.439-0.646-1.439-1.439l0,0c0-0.797,0.643-1.443,1.439-1.443h31.084C316.338,309.273,316.984,309.92,316.984,310.717     L316.984,310.717z" style="fill:#FFFFFF;" fill-rule="evenodd" transform="matrix(1 0 0 1 -261.10801847884545 -261.1054990033441)"/>
</g>
</g>
</g>
<g id="prefix_id_95128984ON_x5F_50_x25_" display="none">
<path clip-rule="evenodd" d="M366.659,286.396v29.221   c0,2.969-2.41,5.379-5.381,5.379h-57.4c3.951-6.029,6.25-13.25,6.25-21c0-6.899-1.818-13.369-5.01-18.97h56.16   C364.249,281.026,366.659,283.437,366.659,286.396z" style="fill:#231F20;fill-opacity:0.45;" fill-rule="evenodd" display="inline" transform="matrix(1 0 0 1 -261.10801847884545 -261.1054990033441)"/>
<g id="prefix_id_95128984ON_6_" display="inline">
<g>
<ellipse fill-rule="evenodd" style="fill:#F7941E;" rx="38.392" cx="10.62397257718671" ry="38.392" cy="38.89651773112043" clip-rule="evenodd"/>
<g>
<path style="fill:#FFFFFF;" d="M276.603,310.859h-9.732c-0.729,0-1.311,0.59-1.311,1.313c0,0.725,0.582,1.314,1.311,1.314h9.732      c0.721,0,1.311-0.59,1.311-1.314C277.913,311.449,277.323,310.859,276.603,310.859z" transform="matrix(1 0 0 1 -261.10801847884545 -261.1054990033441)"/>
<path style="fill:#FFFFFF;" d="M266.224,315.449c0,1.572,1.148,2.867,2.645,3.125h5.727c1.504-0.256,2.654-1.553,2.654-3.125H266.224z" transform="matrix(1 0 0 1 -261.10801847884545 -261.1054990033441)"/>
<path style="fill:#FFFFFF;" d="M271.733,281.43c-7.262,0-13.148,5.887-13.148,13.146c0,3.064,1.055,5.879,2.813,8.109      c1.561,1.975,3.037,4.131,4.313,6.301h12.055c1.285-2.189,2.732-4.307,4.305-6.301c1.756-2.23,2.814-5.045,2.814-8.109      C284.884,287.316,278.995,281.43,271.733,281.43z" transform="matrix(1 0 0 1 -261.10801847884545 -261.1054990033441)"/>
</g>
</g>
<ellipse fill-rule="evenodd" style="fill:#FFFFFF;" rx="1.886" cx="10.627972577186561" ry="1.886" cy="13.648517731120403" clip-rule="evenodd"/>
<path clip-rule="evenodd" d="M254.081,300.002c0,1.041-0.846,1.881-1.883,1.881    c-1.043,0-1.887-0.84-1.887-1.881s0.844-1.881,1.887-1.881C253.235,298.121,254.081,298.961,254.081,300.002z" style="fill:#FFFFFF;" fill-rule="evenodd" transform="matrix(1 0 0 1 -261.10801847884545 -261.1054990033441)"/>
<path clip-rule="evenodd" d="M255.89,282.918c0,1.041-0.846,1.883-1.883,1.883    c-1.045,0-1.889-0.842-1.889-1.883s0.844-1.883,1.889-1.883C255.044,281.035,255.89,281.877,255.89,282.918z" style="fill:#FFFFFF;" fill-rule="evenodd" transform="matrix(1 0 0 1 -261.10801847884545 -261.1054990033441)"/>
<path clip-rule="evenodd" d="M291.267,282.908c0,1.041-0.844,1.883-1.887,1.883    c-1.037,0-1.883-0.842-1.883-1.883c0-1.039,0.846-1.883,1.883-1.883C290.423,281.025,291.267,281.869,291.267,282.908z" style="fill:#FFFFFF;" fill-rule="evenodd" transform="matrix(1 0 0 1 -261.10801847884545 -261.1054990033441)"/>
<path clip-rule="evenodd" d="M293.149,300.002c0,1.041-0.846,1.881-1.883,1.881    c-1.043,0-1.887-0.84-1.887-1.881s0.844-1.881,1.887-1.881C292.304,298.121,293.149,298.961,293.149,300.002z" style="fill:#FFFFFF;" fill-rule="evenodd" transform="matrix(1 0 0 1 -261.10801847884545 -261.1054990033441)"/>
</g>
<text style="fill:#FFFFFF;font-size:15;font-family:&apos;Ubuntu-Medium&apos;;" display="inline" transform="matrix(1 0 0 1 60.077471175695564 44.719738270825815)">
50%</text>
</g>
<g>
<ellipse display="none" fill-rule="evenodd" style="fill:#F7941E;" rx="38.392" cx="38.89197257718662" cy="38.89651773112043" ry="38.392" id="prefix_id_95128984podklad" clip-rule="evenodd"/>
<path id="prefix_id_95128984žárovka" d="M294.493,320h11.025c0,1-1.15,2-2.654,3h-5.727C295.642,322,294.493,321,294.493,320z    M282.276,285.161c-1.045,0-1.889,0.841-1.889,1.882s0.844,1.883,1.889,1.883c1.037,0,1.883-0.842,1.883-1.883   S283.313,285.161,282.276,285.161z M280.468,302.246c-1.043,0-1.887,0.84-1.887,1.881s0.844,1.881,1.887,1.881   c1.037,0,1.883-0.84,1.883-1.881S281.505,302.246,280.468,302.246z M300.003,280.761c1.043,0,1.889-0.843,1.889-1.883   c0-1.041-0.846-1.883-1.889-1.883c-1.039,0-1.883,0.842-1.883,1.883C298.12,279.918,298.964,280.761,300.003,280.761z    M319.536,287.033c0-1.039-0.844-1.882-1.887-1.882c-1.037,0-1.883,0.843-1.883,1.882c0,1.041,0.846,1.883,1.883,1.883   C318.692,288.916,319.536,288.074,319.536,287.033z M319.536,302.246c-1.043,0-1.887,0.84-1.887,1.881s0.844,1.881,1.887,1.881   c1.037,0,1.883-0.84,1.883-1.881S320.573,302.246,319.536,302.246z M300.003,285.555c-7.262,0-13.148,5.886-13.148,13.146   c0,3.064,1.055,5.823,2.813,8.054c1.561,1.975,3.037,4.245,4.313,6.245h12.055c1.285-2,2.732-4.251,4.305-6.245   c1.756-2.23,2.814-5.017,2.814-8.081C313.153,291.413,307.265,285.555,300.003,285.555z M304.872,315h-9.732   c-0.729,0-1.311,0.776-1.311,1.499c0,0.725,0.582,1.501,1.311,1.501h9.732c0.721,0,1.311-0.776,1.311-1.501   C306.183,315.776,305.593,315,304.872,315z" style="fill:#FFFFFF;" transform="matrix(1 0 0 1 -261.10801847884545 -261.1054990033441)"/>
</g>
<g id="prefix_id_95128984OFF" display="none">
<g display="inline">
<ellipse fill-rule="evenodd" style="fill-opacity:0.45;fill:#231F20;" rx="38.392" cx="38.89197257718662" ry="38.392" cy="38.8955177311204" clip-rule="evenodd"/>
<g>
<path style="fill:#FFFFFF;" d="M304.87,310.859h-9.732c-0.729,0-1.311,0.59-1.311,1.313c0,0.725,0.582,1.314,1.311,1.314h9.732     c0.721,0,1.311-0.59,1.311-1.314C306.181,311.449,305.591,310.859,304.87,310.859z" transform="matrix(1 0 0 1 -261.10801847884545 -261.1054990033441)"/>
<path style="fill:#FFFFFF;" d="M294.491,315.449c0,1.571,1.148,2.867,2.645,3.124h5.727c1.504-0.255,2.654-1.553,2.654-3.124H294.491z" transform="matrix(1 0 0 1 -261.10801847884545 -261.1054990033441)"/>
<path style="fill:#FFFFFF;" d="M300.001,281.43c-7.262,0-13.148,5.885-13.148,13.146c0,3.065,1.055,5.879,2.813,8.109     c1.561,1.975,3.037,4.13,4.313,6.301h12.055c1.285-2.189,2.732-4.308,4.305-6.301c1.756-2.23,2.814-5.044,2.814-8.109     C313.151,287.315,307.263,281.43,300.001,281.43z" transform="matrix(1 0 0 1 -261.10801847884545 -261.1054990033441)"/>
</g>
</g>
</g>
<g id="prefix_id_95128984heating" display="none">
<path clip-rule="evenodd" d="M381.541,274.205v51.58   c0,2.97-2.4,5.38-5.369,5.38h-96.811c9.51-6.99,15.68-18.26,15.68-30.97c0-12.95-6.41-24.4-16.219-31.36h97.35   C379.141,268.835,381.541,271.235,381.541,274.205z" style="fill:#231F20;fill-opacity:0.45;" fill-rule="evenodd" display="inline" transform="matrix(1 0 0 1 -261.10801847884545 -261.1054990033441)"/>
<ellipse display="inline" fill-rule="evenodd" style="fill:#EC3A48;" rx="38.418" cx="-4.231027422813291" cy="38.89451773112042" ry="38.418" clip-rule="evenodd"/>
<text style="fill:#FFFFFF;font-size:15;font-family:&apos;Ubuntu-Medium&apos;;" display="inline" transform="matrix(1 0 0 1 74.07167665054908 43.709057118482065)">
25 °C</text>
<g display="inline">
<g>
<path clip-rule="evenodd" d="M312.475,305.694c0,0.52-0.422,0.941-0.941,0.941l0,0     c-0.52,0-0.941-0.422-0.941-0.941v-11.391c0-0.52,0.422-0.941,0.941-0.941l0,0c0.52,0,0.941,0.422,0.941,0.941V305.694z" style="fill:#FFFFFF;" fill-rule="evenodd" transform="matrix(1 0 0 1 -261.10801847884545 -261.1054990033441)"/>
<path clip-rule="evenodd" d="M316.355,305.694c0,0.52-0.422,0.941-0.941,0.941l0,0     c-0.52,0-0.941-0.422-0.941-0.941v-11.391c0-0.52,0.422-0.941,0.941-0.941l0,0c0.52,0,0.941,0.422,0.941,0.941V305.694z" style="fill:#FFFFFF;" fill-rule="evenodd" transform="matrix(1 0 0 1 -261.10801847884545 -261.1054990033441)"/>
<path clip-rule="evenodd" d="M320.236,305.694c0,0.52-0.422,0.941-0.941,0.941l0,0     c-0.52,0-0.941-0.422-0.941-0.941v-11.391c0-0.52,0.422-0.941,0.941-0.941l0,0c0.52,0,0.941,0.422,0.941,0.941V305.694z" style="fill:#FFFFFF;" fill-rule="evenodd" transform="matrix(1 0 0 1 -261.10801847884545 -261.1054990033441)"/>
</g>
</g>
<g display="inline">
<path style="fill:#FFFFFF;" d="M258.143,309.186c0.01-0.07,0.016-0.143,0.016-0.217V300c0-0.709-0.568-1.285-1.281-1.285    c-0.707,0-1.281,0.561-1.281,1.285v8.969c0,0.074,0.006,0.146,0.018,0.217c-1.504,0.523-2.582,1.951-2.582,3.633    c0,2.122,1.721,3.845,3.846,3.845c2.123,0,3.846-1.723,3.846-3.845C260.723,311.137,259.645,309.709,258.143,309.186z" transform="matrix(1 0 0 1 -261.10801847884545 -261.1054990033441)"/>
<path style="fill:#FFFFFF;" d="M263.439,293.008c0.354-0.001,0.641-0.287,0.641-0.641s-0.287-0.642-0.641-0.642h-2.717V287.3h2.717    c0.354-0.001,0.641-0.287,0.641-0.641s-0.287-0.642-0.641-0.642h-2.717v-1.411c0-2.115-1.73-3.833-3.846-3.833    c-2.129,0-3.846,1.718-3.846,3.833v23.085c-1.551,1.166-2.563,3.025-2.563,5.127c0,3.537,2.871,6.408,6.408,6.408    s6.408-2.871,6.408-6.408c0-2.102-1.012-3.961-2.563-5.127v-3.269h2.717c0.354-0.001,0.641-0.287,0.641-0.641    s-0.287-0.642-0.641-0.642h-2.717v-4.426h2.717c0.354,0,0.641-0.287,0.641-0.641s-0.287-0.641-0.641-0.641h-2.717v-4.426H263.439z     M262.004,312.818c0,2.832-2.295,5.126-5.127,5.126s-5.127-2.294-5.127-5.126c0-1.898,1.025-3.551,2.563-4.436v-23.764    c0-1.423,1.154-2.564,2.564-2.564c1.424,0,2.564,1.154,2.564,2.564v23.764C260.979,309.268,262.004,310.92,262.004,312.818z" transform="matrix(1 0 0 1 -261.10801847884545 -261.1054990033441)"/>
</g>
</g>
<g id="prefix_id_95128984cooling_1_" display="none">
<path clip-rule="evenodd" d="M381.666,274.012v51.58   c0,2.969-2.4,5.379-5.369,5.379h-96.811c9.51-6.99,15.68-18.26,15.68-30.969c0-12.951-6.41-24.4-16.219-31.361h97.35   C379.266,268.641,381.666,271.041,381.666,274.012z" style="fill:#231F20;fill-opacity:0.45;" fill-rule="evenodd" display="inline" transform="matrix(1 0 0 1 -261.10801847884545 -261.1054990033441)"/>
<ellipse display="inline" fill-rule="evenodd" style="fill:#00ADEE;" rx="38.418" cx="-4.356027422813291" cy="38.89451773112042" ry="38.418" clip-rule="evenodd"/>
<text style="fill:#FFFFFF;font-size:15;font-family:&apos;Ubuntu-Medium&apos;;" display="inline" transform="matrix(1 0 0 1 73.94667665054908 43.515636708325815)">
22 °C</text>
<path clip-rule="evenodd" d="M320.984,298.865h-3.424l2.42-2.42   c0.367-0.367,0.367-0.963,0-1.33c-0.367-0.369-0.963-0.369-1.33-0.002l-2.422,2.422v-3.424c0-0.52-0.42-0.941-0.939-0.941   s-0.941,0.422-0.941,0.941v3.424l-2.42-2.422c-0.367-0.367-0.965-0.367-1.332,0c-0.367,0.369-0.367,0.965,0,1.332l2.422,2.42   h-3.424c-0.52,0-0.941,0.422-0.941,0.941s0.422,0.941,0.941,0.941h3.422l-2.42,2.42c-0.367,0.367-0.367,0.963,0,1.33   s0.965,0.367,1.33,0l2.422-2.42v3.424c0,0.52,0.422,0.939,0.941,0.939s0.939-0.42,0.939-0.939v-3.424l2.422,2.42   c0.367,0.367,0.963,0.367,1.33,0s0.367-0.963,0-1.33l-2.42-2.42h3.424c0.52,0,0.939-0.422,0.941-0.941   C321.924,299.287,321.504,298.865,320.984,298.865z" style="fill:#FFFFFF;" fill-rule="evenodd" display="inline" transform="matrix(1 0 0 1 -261.10801847884545 -261.1054990033441)"/>
<g display="inline">
<path style="fill:#FFFFFF;" d="M257.621,309.185c0.01-0.069,0.016-0.143,0.016-0.216V300c0-0.71-0.568-1.286-1.281-1.286    c-0.707,0-1.281,0.562-1.281,1.286v8.969c0,0.073,0.006,0.146,0.018,0.216c-1.504,0.523-2.582,1.952-2.582,3.633    c0,2.122,1.721,3.845,3.846,3.845c2.123,0,3.846-1.723,3.846-3.845C260.201,311.137,259.123,309.708,257.621,309.185z" transform="matrix(1 0 0 1 -261.10801847884545 -261.1054990033441)"/>
<path style="fill:#FFFFFF;" d="M262.918,293.007c0.354-0.001,0.641-0.287,0.641-0.641s-0.287-0.642-0.641-0.642h-2.717v-4.426h2.717    c0.354,0,0.641-0.287,0.641-0.641s-0.287-0.641-0.641-0.641h-2.717v-1.412c0-2.115-1.73-3.832-3.846-3.832    c-2.129,0-3.846,1.717-3.846,3.832v23.085c-1.551,1.167-2.563,3.025-2.563,5.127c0,3.537,2.871,6.409,6.408,6.409    s6.408-2.872,6.408-6.409c0-2.102-1.012-3.96-2.563-5.127v-3.269h2.717c0.354,0,0.641-0.287,0.641-0.641s-0.287-0.641-0.641-0.641    h-2.717v-4.426h2.717c0.354,0,0.641-0.287,0.641-0.641s-0.287-0.641-0.641-0.641h-2.717v-4.427H262.918z M261.482,312.817    c0,2.833-2.295,5.126-5.127,5.126s-5.127-2.293-5.127-5.126c0-1.897,1.025-3.55,2.563-4.435v-23.765    c0-1.423,1.154-2.563,2.564-2.563c1.424,0,2.564,1.153,2.564,2.563v23.765C260.457,309.268,261.482,310.92,261.482,312.817z" transform="matrix(1 0 0 1 -261.10801847884545 -261.1054990033441)"/>
</g>
</g>
<g id="prefix_id_95128984fan" display="none">
<path clip-rule="evenodd" d="M381.666,274.012v51.58   c0,2.969-2.4,5.379-5.369,5.379h-96.811c9.51-6.99,15.68-18.26,15.68-30.969c0-12.951-6.41-24.4-16.219-31.361h97.35   C379.266,268.641,381.666,271.041,381.666,274.012z" style="fill:#231F20;fill-opacity:0.45;" fill-rule="evenodd" display="inline" transform="matrix(1 0 0 1 -261.10801847884545 -261.1054990033441)"/>
<ellipse display="inline" fill-rule="evenodd" style="fill:#00ADEE;" rx="38.418" cx="-4.356027422813291" cy="38.89451773112042" ry="38.418" clip-rule="evenodd"/>
<text style="fill:#FFFFFF;font-size:15;font-family:&apos;Ubuntu-Medium&apos;;" display="inline" transform="matrix(1 0 0 1 73.94667665054908 43.515636708325815)">
22 °C</text>
<g display="inline">
<path style="fill:#FFFFFF;" d="M257.621,309.185c0.01-0.069,0.016-0.143,0.016-0.216V300c0-0.71-0.568-1.286-1.281-1.286    c-0.707,0-1.281,0.562-1.281,1.286v8.969c0,0.073,0.006,0.146,0.018,0.216c-1.504,0.523-2.582,1.952-2.582,3.633    c0,2.122,1.721,3.845,3.846,3.845c2.123,0,3.846-1.723,3.846-3.845C260.201,311.137,259.123,309.708,257.621,309.185z" transform="matrix(1 0 0 1 -261.10801847884545 -261.1054990033441)"/>
<path style="fill:#FFFFFF;" d="M262.918,293.007c0.354-0.001,0.641-0.287,0.641-0.641s-0.287-0.642-0.641-0.642h-2.717v-4.426h2.717    c0.354,0,0.641-0.287,0.641-0.641s-0.287-0.641-0.641-0.641h-2.717v-1.412c0-2.115-1.73-3.832-3.846-3.832    c-2.129,0-3.846,1.717-3.846,3.832v23.085c-1.551,1.167-2.563,3.025-2.563,5.127c0,3.537,2.871,6.409,6.408,6.409    s6.408-2.872,6.408-6.409c0-2.102-1.012-3.96-2.563-5.127v-3.269h2.717c0.354,0,0.641-0.287,0.641-0.641s-0.287-0.641-0.641-0.641    h-2.717v-4.426h2.717c0.354,0,0.641-0.287,0.641-0.641s-0.287-0.641-0.641-0.641h-2.717v-4.427H262.918z M261.482,312.817    c0,2.833-2.295,5.126-5.127,5.126s-5.127-2.293-5.127-5.126c0-1.897,1.025-3.55,2.563-4.435v-23.765    c0-1.423,1.154-2.563,2.564-2.563c1.424,0,2.564,1.153,2.564,2.563v23.765C260.457,309.268,261.482,310.92,261.482,312.817z" transform="matrix(1 0 0 1 -261.10801847884545 -261.1054990033441)"/>
</g>
<path clip-rule="evenodd" d="M313.98,305.91   c1.018-1.004,1.543-2.234,1.701-3.643c-0.027,0.031-0.057,0.062-0.084,0.094c-0.92,1.057-2.031,1.838-3.344,2.331   c-0.086,0.032-0.143,0.021-0.209-0.043c-0.982-0.921-1.617-2.038-1.906-3.353c-0.047-0.22-0.07-0.445-0.104-0.667   c-0.004-0.02,0-0.04,0-0.079c0.674,0.17,1.348,0.252,2.035,0.182c0.684-0.07,1.34-0.248,2.002-0.526   c-0.193-0.042-0.361-0.073-0.527-0.112c-1.232-0.298-2.34-0.844-3.32-1.65c-0.068-0.057-0.094-0.102-0.072-0.197   c0.365-1.549,1.186-2.797,2.459-3.748c0.023-0.017,0.049-0.03,0.088-0.054c0.18,0.673,0.459,1.292,0.857,1.854   c0.398,0.563,0.883,1.044,1.453,1.47c-0.072-0.23-0.145-0.439-0.203-0.651c-0.266-0.964-0.355-1.943-0.266-2.938   c0.018-0.211,0.055-0.422,0.08-0.633c0.01-0.078,0.045-0.118,0.127-0.144c0.773-0.236,1.563-0.331,2.373-0.271   c0.701,0.053,1.373,0.218,2.02,0.487c0.047,0.019,0.092,0.042,0.137,0.063c0.01,0.006,0.018,0.014,0.035,0.027   c-0.65,0.648-1.125,1.405-1.412,2.275c-0.146,0.44-0.244,0.891-0.309,1.386c0.141-0.153,0.254-0.284,0.373-0.407   c0.883-0.924,1.918-1.615,3.119-2.051c0.037-0.014,0.104-0.003,0.131,0.022c0.934,0.853,1.564,1.892,1.879,3.116   c0.084,0.324,0.131,0.659,0.201,1.025c-1.412-0.396-2.742-0.225-4.072,0.332c0.18,0.036,0.332,0.063,0.48,0.098   c1.262,0.303,2.402,0.852,3.398,1.688c0.053,0.045,0.063,0.08,0.047,0.146c-0.357,1.57-1.186,2.832-2.482,3.787   c-0.018,0.013-0.035,0.021-0.066,0.039c-0.365-1.386-1.17-2.458-2.316-3.327c0.047,0.145,0.088,0.263,0.127,0.382   c0.326,1.01,0.426,2.047,0.365,3.102c-0.014,0.236-0.064,0.472-0.094,0.707c-0.012,0.102-0.057,0.153-0.162,0.188   c-0.658,0.213-1.334,0.299-2.023,0.283c-0.842-0.02-1.65-0.2-2.424-0.544C314.047,305.944,314.021,305.931,313.98,305.91z    M318.633,299.803c0-1.096-0.885-1.98-1.98-1.979c-1.107,0.001-1.984,0.88-1.986,1.987c0,1.098,0.883,1.979,1.982,1.979   C317.752,301.791,318.633,300.909,318.633,299.803z" style="fill:#FFFFFF;" fill-rule="evenodd" display="inline" transform="matrix(1 0 0 1 -261.10801847884545 -261.1054990033441)"/>
</g>
<g id="prefix_id_95128984power_1_" display="none">
<path clip-rule="evenodd" d="M381.666,274.012v51.58   c0,2.971-2.4,5.381-5.369,5.381h-96.811c9.51-6.99,15.68-18.26,15.68-30.971c0-12.949-6.41-24.4-16.219-31.36h97.35   C379.266,268.642,381.666,271.042,381.666,274.012z" style="fill:#231F20;fill-opacity:0.45;" fill-rule="evenodd" display="inline" transform="matrix(1 0 0 1 -261.10801847884545 -261.1054990033441)"/>
<ellipse display="inline" fill-rule="evenodd" style="fill:#5B57A4;" rx="38.418" cx="-4.356027422813291" cy="38.89451773112042" ry="38.418" clip-rule="evenodd"/>
<text style="fill:#FFFFFF;font-size:15;font-family:&apos;Ubuntu-Medium&apos;;" display="inline" transform="matrix(1 0 0 1 48.842180648351814 43.515636708325815)">
1 kwh</text>
<g display="inline">
<g>
<path style="fill:#FFFFFF;" d="M247.522,314.545c-0.205,0-0.41-0.068-0.58-0.206c-0.34-0.278-0.436-0.758-0.227-1.145l5.444-10.118     h-4.638c-0.379,0-0.72-0.232-0.855-0.586c-0.137-0.354-0.041-0.754,0.24-1.01l17.449-15.789c0.32-0.289,0.799-0.316,1.149-0.063     s0.478,0.715,0.304,1.11l-4.599,10.516h4.771c0.386,0,0.73,0.24,0.862,0.602c0.132,0.363,0.021,0.77-0.273,1.017l-18.46,15.459     C247.94,314.473,247.73,314.545,247.522,314.545z M249.899,301.244h3.794c0.323,0,0.621,0.17,0.786,0.446     c0.166,0.276,0.174,0.62,0.021,0.905l-3.914,7.271l12.875-10.781h-3.651c-0.31,0-0.598-0.156-0.768-0.414     c-0.169-0.26-0.196-0.586-0.072-0.87l3.45-7.888L249.899,301.244z" transform="matrix(1 0 0 1 -261.10801847884545 -261.1054990033441)"/>
</g>
</g>
</g>
<g id="prefix_id_95128984water" display="none">
<path clip-rule="evenodd" d="M381.666,274.012v51.58   c0,2.971-2.4,5.381-5.369,5.381h-96.811c9.51-6.99,15.68-18.26,15.68-30.971c0-12.949-6.41-24.4-16.219-31.36h97.35   C379.266,268.642,381.666,271.042,381.666,274.012z" style="fill:#231F20;fill-opacity:0.45;" fill-rule="evenodd" display="inline" transform="matrix(1 0 0 1 -261.10801847884545 -261.1054990033441)"/>
<ellipse display="inline" fill-rule="evenodd" style="fill:#008ED3;" rx="38.418" cx="-4.356027422813291" cy="38.89451773112042" ry="38.418" clip-rule="evenodd"/>
<text style="fill:#FFFFFF;font-size:15;font-family:&apos;Ubuntu-Medium&apos;;" display="inline" transform="matrix(1 0 0 1 48.842180648351814 43.515636708325815)">
1 kwh</text>
<path clip-rule="evenodd" d="M256.604,289.563   c2.834,3.676,5.382,7.137,6.837,11.248c1.007,2.844,0.435,5.449-1.7,7.547c-2.136,2.098-4.74,2.574-7.582,1.59   c-3.424-1.186-5.391-5.131-4.258-8.727c0.42-1.33,0.971-2.656,1.687-3.85C253.145,294.781,254.847,292.279,256.604,289.563z    M254.459,307.988c-0.13-0.498-0.213-0.893-0.336-1.273c-0.606-1.877-0.669-3.777-0.181-5.678c0.496-1.936,1.063-3.852,1.594-5.777   c0.141-0.514,0.268-1.029,0.401-1.545c-0.069-0.023-0.138-0.047-0.206-0.07c-1.262,2.352-2.643,4.648-3.755,7.068   C250.671,303.555,251.798,306.689,254.459,307.988z" style="fill:#FFFFFF;" fill-rule="evenodd" display="inline" transform="matrix(1 0 0 1 -261.10801847884545 -261.1054990033441)"/>
</g>
</g>
</g>
</g>
<g inkscape:groupmode="layer" myscada:layerActiveArea="YES" id="layer2" inkscape:layerlabel="ActiveArea"/>
</svg>
